<mxfile host="app.diagrams.net" modified="2024-04-24T02:23:50.906Z" agent="Mozilla/5.0 (Macintosh; Intel Mac OS X 10_15_7) AppleWebKit/537.36 (KHTML, like Gecko) Chrome/124.0.0.0 Safari/537.36" etag="4ytc0r3NGQdG6GG-DvMJ" version="24.2.8" type="github">
  <diagram id="prtHgNgQTEPvFCAcTncT" name="Page-1">
    <mxGraphModel dx="1803" dy="975" grid="0" gridSize="10" guides="1" tooltips="1" connect="1" arrows="1" fold="1" page="1" pageScale="1" pageWidth="3300" pageHeight="4681" math="0" shadow="0">
      <root>
        <mxCell id="0" />
        <mxCell id="1" parent="0" />
        <mxCell id="jlwMu8HetRNgnaijn_Fa-1" value="新增任务" style="swimlane;childLayout=stackLayout;resizeParent=1;resizeParentMax=0;startSize=20;html=1;" vertex="1" parent="1">
          <mxGeometry x="160" y="130" width="890" height="1300" as="geometry" />
        </mxCell>
        <mxCell id="jlwMu8HetRNgnaijn_Fa-2" value="特征平台" style="swimlane;startSize=20;html=1;" vertex="1" parent="jlwMu8HetRNgnaijn_Fa-1">
          <mxGeometry y="20" width="330" height="1280" as="geometry" />
        </mxCell>
        <mxCell id="jlwMu8HetRNgnaijn_Fa-62" value="结束" style="rounded=1;whiteSpace=wrap;html=1;fillColor=#cdeb8b;strokeColor=#36393d;" vertex="1" parent="jlwMu8HetRNgnaijn_Fa-2">
          <mxGeometry x="142.5" y="1160" width="70" height="30" as="geometry" />
        </mxCell>
        <mxCell id="jlwMu8HetRNgnaijn_Fa-67" style="edgeStyle=orthogonalEdgeStyle;rounded=0;orthogonalLoop=1;jettySize=auto;html=1;exitX=0.5;exitY=1;exitDx=0;exitDy=0;entryX=0.5;entryY=0;entryDx=0;entryDy=0;" edge="1" parent="jlwMu8HetRNgnaijn_Fa-2" source="jlwMu8HetRNgnaijn_Fa-6" target="jlwMu8HetRNgnaijn_Fa-66">
          <mxGeometry relative="1" as="geometry" />
        </mxCell>
        <mxCell id="jlwMu8HetRNgnaijn_Fa-6" value="新增任务" style="rounded=1;whiteSpace=wrap;html=1;fillColor=#cdeb8b;strokeColor=#36393d;" vertex="1" parent="jlwMu8HetRNgnaijn_Fa-2">
          <mxGeometry x="140" y="30" width="70" height="30" as="geometry" />
        </mxCell>
        <mxCell id="jlwMu8HetRNgnaijn_Fa-70" style="edgeStyle=orthogonalEdgeStyle;rounded=0;orthogonalLoop=1;jettySize=auto;html=1;exitX=0.5;exitY=1;exitDx=0;exitDy=0;entryX=0.5;entryY=0;entryDx=0;entryDy=0;" edge="1" parent="jlwMu8HetRNgnaijn_Fa-2" source="jlwMu8HetRNgnaijn_Fa-66" target="jlwMu8HetRNgnaijn_Fa-36">
          <mxGeometry relative="1" as="geometry">
            <mxPoint x="175" y="140" as="targetPoint" />
          </mxGeometry>
        </mxCell>
        <mxCell id="jlwMu8HetRNgnaijn_Fa-66" value="基础入参数校验" style="rounded=1;whiteSpace=wrap;html=1;" vertex="1" parent="jlwMu8HetRNgnaijn_Fa-2">
          <mxGeometry x="125" y="90" width="100" height="30" as="geometry" />
        </mxCell>
        <mxCell id="jlwMu8HetRNgnaijn_Fa-36" value="特征按表分组" style="rounded=1;whiteSpace=wrap;html=1;" vertex="1" parent="jlwMu8HetRNgnaijn_Fa-2">
          <mxGeometry x="125" y="150" width="105" height="30" as="geometry" />
        </mxCell>
        <mxCell id="jlwMu8HetRNgnaijn_Fa-73" value="是" style="edgeStyle=orthogonalEdgeStyle;rounded=0;orthogonalLoop=1;jettySize=auto;html=1;exitX=0.5;exitY=1;exitDx=0;exitDy=0;entryX=0.5;entryY=0;entryDx=0;entryDy=0;" edge="1" parent="jlwMu8HetRNgnaijn_Fa-2" source="jlwMu8HetRNgnaijn_Fa-35" target="jlwMu8HetRNgnaijn_Fa-72">
          <mxGeometry relative="1" as="geometry" />
        </mxCell>
        <mxCell id="jlwMu8HetRNgnaijn_Fa-35" value="判断表中&lt;span style=&quot;background-color: initial;&quot;&gt;是否&lt;/span&gt;&lt;div&gt;&lt;span style=&quot;background-color: initial;&quot;&gt;包含回溯主键&lt;/span&gt;&lt;/div&gt;" style="rhombus;whiteSpace=wrap;html=1;fillColor=#ffcccc;strokeColor=#36393d;" vertex="1" parent="jlwMu8HetRNgnaijn_Fa-2">
          <mxGeometry x="107.5" y="200" width="140" height="80" as="geometry" />
        </mxCell>
        <mxCell id="jlwMu8HetRNgnaijn_Fa-76" style="edgeStyle=orthogonalEdgeStyle;rounded=0;orthogonalLoop=1;jettySize=auto;html=1;exitX=0.5;exitY=1;exitDx=0;exitDy=0;entryX=0.5;entryY=0;entryDx=0;entryDy=0;" edge="1" parent="jlwMu8HetRNgnaijn_Fa-2" source="jlwMu8HetRNgnaijn_Fa-72" target="jlwMu8HetRNgnaijn_Fa-75">
          <mxGeometry relative="1" as="geometry" />
        </mxCell>
        <mxCell id="jlwMu8HetRNgnaijn_Fa-72" value="解析文件" style="rounded=1;whiteSpace=wrap;html=1;" vertex="1" parent="jlwMu8HetRNgnaijn_Fa-2">
          <mxGeometry x="125" y="330" width="105" height="30" as="geometry" />
        </mxCell>
        <mxCell id="jlwMu8HetRNgnaijn_Fa-84" style="edgeStyle=orthogonalEdgeStyle;rounded=0;orthogonalLoop=1;jettySize=auto;html=1;exitX=0.5;exitY=1;exitDx=0;exitDy=0;" edge="1" parent="jlwMu8HetRNgnaijn_Fa-2" source="jlwMu8HetRNgnaijn_Fa-75" target="jlwMu8HetRNgnaijn_Fa-78">
          <mxGeometry relative="1" as="geometry" />
        </mxCell>
        <mxCell id="jlwMu8HetRNgnaijn_Fa-75" value="校验文件格式" style="rounded=1;whiteSpace=wrap;html=1;" vertex="1" parent="jlwMu8HetRNgnaijn_Fa-2">
          <mxGeometry x="125" y="400" width="105" height="30" as="geometry" />
        </mxCell>
        <mxCell id="jlwMu8HetRNgnaijn_Fa-80" style="edgeStyle=orthogonalEdgeStyle;rounded=0;orthogonalLoop=1;jettySize=auto;html=1;exitX=0.5;exitY=1;exitDx=0;exitDy=0;entryX=0.5;entryY=0;entryDx=0;entryDy=0;" edge="1" parent="jlwMu8HetRNgnaijn_Fa-2" source="jlwMu8HetRNgnaijn_Fa-78" target="jlwMu8HetRNgnaijn_Fa-79">
          <mxGeometry relative="1" as="geometry" />
        </mxCell>
        <mxCell id="jlwMu8HetRNgnaijn_Fa-78" value="样本是否包含&lt;div&gt;user_guid&lt;/div&gt;" style="rhombus;whiteSpace=wrap;html=1;fillColor=#ffcccc;strokeColor=#36393d;" vertex="1" parent="jlwMu8HetRNgnaijn_Fa-2">
          <mxGeometry x="107.5" y="460" width="140" height="80" as="geometry" />
        </mxCell>
        <mxCell id="jlwMu8HetRNgnaijn_Fa-79" value="生成标准格式文件" style="rounded=1;whiteSpace=wrap;html=1;" vertex="1" parent="jlwMu8HetRNgnaijn_Fa-2">
          <mxGeometry x="125" y="580" width="105" height="30" as="geometry" />
        </mxCell>
        <mxCell id="jlwMu8HetRNgnaijn_Fa-87" value="生成建表语句" style="rounded=1;whiteSpace=wrap;html=1;" vertex="1" parent="jlwMu8HetRNgnaijn_Fa-2">
          <mxGeometry x="125" y="730" width="105" height="30" as="geometry" />
        </mxCell>
        <mxCell id="jlwMu8HetRNgnaijn_Fa-96" style="edgeStyle=orthogonalEdgeStyle;rounded=0;orthogonalLoop=1;jettySize=auto;html=1;exitX=0.5;exitY=1;exitDx=0;exitDy=0;entryX=0.5;entryY=0;entryDx=0;entryDy=0;" edge="1" parent="jlwMu8HetRNgnaijn_Fa-2" source="jlwMu8HetRNgnaijn_Fa-93" target="jlwMu8HetRNgnaijn_Fa-95">
          <mxGeometry relative="1" as="geometry" />
        </mxCell>
        <mxCell id="jlwMu8HetRNgnaijn_Fa-93" value="建表成功" style="rhombus;whiteSpace=wrap;html=1;fillColor=#ffcccc;strokeColor=#36393d;" vertex="1" parent="jlwMu8HetRNgnaijn_Fa-2">
          <mxGeometry x="107.5" y="840" width="140" height="80" as="geometry" />
        </mxCell>
        <mxCell id="jlwMu8HetRNgnaijn_Fa-95" value="保存任务" style="rounded=1;whiteSpace=wrap;html=1;" vertex="1" parent="jlwMu8HetRNgnaijn_Fa-2">
          <mxGeometry x="125" y="980" width="105" height="30" as="geometry" />
        </mxCell>
        <mxCell id="jlwMu8HetRNgnaijn_Fa-4" value="Dataman" style="swimlane;startSize=20;html=1;" vertex="1" parent="jlwMu8HetRNgnaijn_Fa-1">
          <mxGeometry x="330" y="20" width="270" height="1280" as="geometry" />
        </mxCell>
        <mxCell id="jlwMu8HetRNgnaijn_Fa-38" value="获取hive表元数据" style="rounded=1;whiteSpace=wrap;html=1;" vertex="1" parent="jlwMu8HetRNgnaijn_Fa-4">
          <mxGeometry x="77.5" y="150" width="115" height="30" as="geometry" />
        </mxCell>
        <mxCell id="jlwMu8HetRNgnaijn_Fa-81" value="获取user_guid" style="rounded=1;whiteSpace=wrap;html=1;" vertex="1" parent="jlwMu8HetRNgnaijn_Fa-4">
          <mxGeometry x="87.5" y="485" width="115" height="30" as="geometry" />
        </mxCell>
        <mxCell id="jlwMu8HetRNgnaijn_Fa-85" value="文件导入hive表" style="rounded=1;whiteSpace=wrap;html=1;" vertex="1" parent="jlwMu8HetRNgnaijn_Fa-4">
          <mxGeometry x="92.5" y="660" width="105" height="30" as="geometry" />
        </mxCell>
        <mxCell id="jlwMu8HetRNgnaijn_Fa-90" value="创建结果表" style="rounded=1;whiteSpace=wrap;html=1;" vertex="1" parent="jlwMu8HetRNgnaijn_Fa-4">
          <mxGeometry x="92.5" y="780" width="105" height="30" as="geometry" />
        </mxCell>
        <mxCell id="jlwMu8HetRNgnaijn_Fa-39" style="edgeStyle=orthogonalEdgeStyle;rounded=0;orthogonalLoop=1;jettySize=auto;html=1;exitX=1;exitY=0.5;exitDx=0;exitDy=0;entryX=0;entryY=0.5;entryDx=0;entryDy=0;" edge="1" parent="jlwMu8HetRNgnaijn_Fa-1" source="jlwMu8HetRNgnaijn_Fa-36" target="jlwMu8HetRNgnaijn_Fa-38">
          <mxGeometry relative="1" as="geometry" />
        </mxCell>
        <mxCell id="jlwMu8HetRNgnaijn_Fa-41" style="edgeStyle=orthogonalEdgeStyle;rounded=0;orthogonalLoop=1;jettySize=auto;html=1;exitX=0.5;exitY=1;exitDx=0;exitDy=0;entryX=1;entryY=0.5;entryDx=0;entryDy=0;" edge="1" parent="jlwMu8HetRNgnaijn_Fa-1" source="jlwMu8HetRNgnaijn_Fa-38" target="jlwMu8HetRNgnaijn_Fa-35">
          <mxGeometry relative="1" as="geometry" />
        </mxCell>
        <mxCell id="jlwMu8HetRNgnaijn_Fa-82" style="edgeStyle=orthogonalEdgeStyle;rounded=0;orthogonalLoop=1;jettySize=auto;html=1;exitX=1;exitY=0.5;exitDx=0;exitDy=0;entryX=0;entryY=0.5;entryDx=0;entryDy=0;" edge="1" parent="jlwMu8HetRNgnaijn_Fa-1" source="jlwMu8HetRNgnaijn_Fa-78" target="jlwMu8HetRNgnaijn_Fa-81">
          <mxGeometry relative="1" as="geometry" />
        </mxCell>
        <mxCell id="jlwMu8HetRNgnaijn_Fa-83" style="edgeStyle=orthogonalEdgeStyle;rounded=0;orthogonalLoop=1;jettySize=auto;html=1;exitX=0.5;exitY=1;exitDx=0;exitDy=0;entryX=1;entryY=0.5;entryDx=0;entryDy=0;" edge="1" parent="jlwMu8HetRNgnaijn_Fa-1" source="jlwMu8HetRNgnaijn_Fa-81" target="jlwMu8HetRNgnaijn_Fa-79">
          <mxGeometry relative="1" as="geometry" />
        </mxCell>
        <mxCell id="jlwMu8HetRNgnaijn_Fa-86" style="edgeStyle=orthogonalEdgeStyle;rounded=0;orthogonalLoop=1;jettySize=auto;html=1;exitX=0.5;exitY=1;exitDx=0;exitDy=0;entryX=0;entryY=0.5;entryDx=0;entryDy=0;" edge="1" parent="jlwMu8HetRNgnaijn_Fa-1" source="jlwMu8HetRNgnaijn_Fa-79" target="jlwMu8HetRNgnaijn_Fa-85">
          <mxGeometry relative="1" as="geometry" />
        </mxCell>
        <mxCell id="jlwMu8HetRNgnaijn_Fa-89" style="edgeStyle=orthogonalEdgeStyle;rounded=0;orthogonalLoop=1;jettySize=auto;html=1;exitX=0.5;exitY=1;exitDx=0;exitDy=0;entryX=1;entryY=0.5;entryDx=0;entryDy=0;" edge="1" parent="jlwMu8HetRNgnaijn_Fa-1" source="jlwMu8HetRNgnaijn_Fa-85" target="jlwMu8HetRNgnaijn_Fa-87">
          <mxGeometry relative="1" as="geometry" />
        </mxCell>
        <mxCell id="jlwMu8HetRNgnaijn_Fa-91" style="edgeStyle=orthogonalEdgeStyle;rounded=0;orthogonalLoop=1;jettySize=auto;html=1;exitX=0.5;exitY=1;exitDx=0;exitDy=0;entryX=0;entryY=0.5;entryDx=0;entryDy=0;" edge="1" parent="jlwMu8HetRNgnaijn_Fa-1" source="jlwMu8HetRNgnaijn_Fa-87" target="jlwMu8HetRNgnaijn_Fa-90">
          <mxGeometry relative="1" as="geometry" />
        </mxCell>
        <mxCell id="jlwMu8HetRNgnaijn_Fa-94" style="edgeStyle=orthogonalEdgeStyle;rounded=0;orthogonalLoop=1;jettySize=auto;html=1;exitX=0.5;exitY=1;exitDx=0;exitDy=0;entryX=1;entryY=0.5;entryDx=0;entryDy=0;" edge="1" parent="jlwMu8HetRNgnaijn_Fa-1" source="jlwMu8HetRNgnaijn_Fa-90" target="jlwMu8HetRNgnaijn_Fa-93">
          <mxGeometry relative="1" as="geometry" />
        </mxCell>
        <mxCell id="jlwMu8HetRNgnaijn_Fa-3" value="数据库" style="swimlane;startSize=20;html=1;" vertex="1" parent="jlwMu8HetRNgnaijn_Fa-1">
          <mxGeometry x="600" y="20" width="290" height="1280" as="geometry" />
        </mxCell>
        <mxCell id="jlwMu8HetRNgnaijn_Fa-97" value="持久化" style="rounded=1;whiteSpace=wrap;html=1;" vertex="1" parent="jlwMu8HetRNgnaijn_Fa-3">
          <mxGeometry x="92.5" y="980" width="105" height="30" as="geometry" />
        </mxCell>
        <mxCell id="jlwMu8HetRNgnaijn_Fa-98" style="edgeStyle=orthogonalEdgeStyle;rounded=0;orthogonalLoop=1;jettySize=auto;html=1;exitX=1;exitY=0.5;exitDx=0;exitDy=0;entryX=0;entryY=0.5;entryDx=0;entryDy=0;" edge="1" parent="jlwMu8HetRNgnaijn_Fa-1" source="jlwMu8HetRNgnaijn_Fa-95" target="jlwMu8HetRNgnaijn_Fa-97">
          <mxGeometry relative="1" as="geometry" />
        </mxCell>
        <mxCell id="jlwMu8HetRNgnaijn_Fa-99" style="edgeStyle=orthogonalEdgeStyle;rounded=0;orthogonalLoop=1;jettySize=auto;html=1;exitX=0.5;exitY=1;exitDx=0;exitDy=0;" edge="1" parent="jlwMu8HetRNgnaijn_Fa-1" source="jlwMu8HetRNgnaijn_Fa-97" target="jlwMu8HetRNgnaijn_Fa-62">
          <mxGeometry relative="1" as="geometry" />
        </mxCell>
        <mxCell id="jlwMu8HetRNgnaijn_Fa-100" value="执行任务" style="swimlane;childLayout=stackLayout;resizeParent=1;resizeParentMax=0;startSize=20;html=1;" vertex="1" parent="1">
          <mxGeometry x="1201" y="134" width="890" height="1090" as="geometry" />
        </mxCell>
        <mxCell id="jlwMu8HetRNgnaijn_Fa-101" value="特征平台" style="swimlane;startSize=20;html=1;" vertex="1" parent="jlwMu8HetRNgnaijn_Fa-100">
          <mxGeometry y="20" width="330" height="1070" as="geometry" />
        </mxCell>
        <mxCell id="jlwMu8HetRNgnaijn_Fa-145" style="edgeStyle=orthogonalEdgeStyle;rounded=0;orthogonalLoop=1;jettySize=auto;html=1;exitX=0.5;exitY=1;exitDx=0;exitDy=0;" edge="1" parent="jlwMu8HetRNgnaijn_Fa-101" source="jlwMu8HetRNgnaijn_Fa-104" target="jlwMu8HetRNgnaijn_Fa-139">
          <mxGeometry relative="1" as="geometry" />
        </mxCell>
        <mxCell id="jlwMu8HetRNgnaijn_Fa-104" value="开始任务" style="rounded=1;whiteSpace=wrap;html=1;fillColor=#cdeb8b;strokeColor=#36393d;" vertex="1" parent="jlwMu8HetRNgnaijn_Fa-101">
          <mxGeometry x="130" y="40" width="70" height="30" as="geometry" />
        </mxCell>
        <mxCell id="jlwMu8HetRNgnaijn_Fa-139" value="按表分组&lt;div&gt;创建调度job&lt;/div&gt;" style="rounded=0;whiteSpace=wrap;html=1;" vertex="1" parent="jlwMu8HetRNgnaijn_Fa-101">
          <mxGeometry x="110" y="109" width="110" height="34" as="geometry" />
        </mxCell>
        <mxCell id="jlwMu8HetRNgnaijn_Fa-155" value="按每个表下面的pt分组&lt;div&gt;每组对应一个分区&lt;/div&gt;&lt;div&gt;创建实例&lt;/div&gt;" style="rounded=0;whiteSpace=wrap;html=1;" vertex="1" parent="jlwMu8HetRNgnaijn_Fa-101">
          <mxGeometry x="110" y="475" width="131" height="56" as="geometry" />
        </mxCell>
        <mxCell id="jlwMu8HetRNgnaijn_Fa-183" style="edgeStyle=orthogonalEdgeStyle;rounded=0;orthogonalLoop=1;jettySize=auto;html=1;exitX=0.5;exitY=1;exitDx=0;exitDy=0;" edge="1" parent="jlwMu8HetRNgnaijn_Fa-101" source="jlwMu8HetRNgnaijn_Fa-161" target="jlwMu8HetRNgnaijn_Fa-182">
          <mxGeometry relative="1" as="geometry" />
        </mxCell>
        <mxCell id="jlwMu8HetRNgnaijn_Fa-161" value="修改任务状态为 执行中" style="rounded=0;whiteSpace=wrap;html=1;" vertex="1" parent="jlwMu8HetRNgnaijn_Fa-101">
          <mxGeometry x="110" y="793" width="145.5" height="34" as="geometry" />
        </mxCell>
        <mxCell id="jlwMu8HetRNgnaijn_Fa-167" value="上线 work flow 和 job" style="rounded=0;whiteSpace=wrap;html=1;" vertex="1" parent="jlwMu8HetRNgnaijn_Fa-101">
          <mxGeometry x="103.75" y="328" width="134" height="35" as="geometry" />
        </mxCell>
        <mxCell id="jlwMu8HetRNgnaijn_Fa-186" style="edgeStyle=orthogonalEdgeStyle;rounded=0;orthogonalLoop=1;jettySize=auto;html=1;exitX=0.5;exitY=1;exitDx=0;exitDy=0;entryX=0.5;entryY=0;entryDx=0;entryDy=0;" edge="1" parent="jlwMu8HetRNgnaijn_Fa-101" source="jlwMu8HetRNgnaijn_Fa-182" target="jlwMu8HetRNgnaijn_Fa-185">
          <mxGeometry relative="1" as="geometry" />
        </mxCell>
        <mxCell id="jlwMu8HetRNgnaijn_Fa-182" value="等待调度平台执行实例" style="rounded=0;whiteSpace=wrap;html=1;" vertex="1" parent="jlwMu8HetRNgnaijn_Fa-101">
          <mxGeometry x="110" y="884" width="145.5" height="34" as="geometry" />
        </mxCell>
        <mxCell id="jlwMu8HetRNgnaijn_Fa-185" value="结束" style="rounded=1;whiteSpace=wrap;html=1;fillColor=#cdeb8b;strokeColor=#36393d;" vertex="1" parent="jlwMu8HetRNgnaijn_Fa-101">
          <mxGeometry x="147.75" y="983" width="70" height="30" as="geometry" />
        </mxCell>
        <mxCell id="jlwMu8HetRNgnaijn_Fa-121" value="调度平台" style="swimlane;startSize=20;html=1;" vertex="1" parent="jlwMu8HetRNgnaijn_Fa-100">
          <mxGeometry x="330" y="20" width="270" height="1070" as="geometry" />
        </mxCell>
        <mxCell id="jlwMu8HetRNgnaijn_Fa-144" style="edgeStyle=orthogonalEdgeStyle;rounded=0;orthogonalLoop=1;jettySize=auto;html=1;exitX=0.5;exitY=1;exitDx=0;exitDy=0;entryX=0.5;entryY=0;entryDx=0;entryDy=0;" edge="1" parent="jlwMu8HetRNgnaijn_Fa-121" source="jlwMu8HetRNgnaijn_Fa-141" target="jlwMu8HetRNgnaijn_Fa-142">
          <mxGeometry relative="1" as="geometry" />
        </mxCell>
        <mxCell id="jlwMu8HetRNgnaijn_Fa-141" value="创建work flow" style="rounded=0;whiteSpace=wrap;html=1;" vertex="1" parent="jlwMu8HetRNgnaijn_Fa-121">
          <mxGeometry x="80" y="109" width="110" height="34" as="geometry" />
        </mxCell>
        <mxCell id="jlwMu8HetRNgnaijn_Fa-164" style="edgeStyle=orthogonalEdgeStyle;rounded=0;orthogonalLoop=1;jettySize=auto;html=1;exitX=0.5;exitY=1;exitDx=0;exitDy=0;entryX=0.5;entryY=0;entryDx=0;entryDy=0;" edge="1" parent="jlwMu8HetRNgnaijn_Fa-121" source="jlwMu8HetRNgnaijn_Fa-142" target="jlwMu8HetRNgnaijn_Fa-146">
          <mxGeometry relative="1" as="geometry" />
        </mxCell>
        <mxCell id="jlwMu8HetRNgnaijn_Fa-142" value="创建job" style="rounded=0;whiteSpace=wrap;html=1;" vertex="1" parent="jlwMu8HetRNgnaijn_Fa-121">
          <mxGeometry x="80" y="178.5" width="110" height="34" as="geometry" />
        </mxCell>
        <mxCell id="jlwMu8HetRNgnaijn_Fa-170" style="edgeStyle=orthogonalEdgeStyle;rounded=0;orthogonalLoop=1;jettySize=auto;html=1;exitX=0.5;exitY=1;exitDx=0;exitDy=0;entryX=0.5;entryY=0;entryDx=0;entryDy=0;" edge="1" parent="jlwMu8HetRNgnaijn_Fa-121" source="jlwMu8HetRNgnaijn_Fa-149" target="jlwMu8HetRNgnaijn_Fa-153">
          <mxGeometry relative="1" as="geometry" />
        </mxCell>
        <mxCell id="jlwMu8HetRNgnaijn_Fa-149" value="发布任务" style="rounded=0;whiteSpace=wrap;html=1;" vertex="1" parent="jlwMu8HetRNgnaijn_Fa-121">
          <mxGeometry x="75" y="392" width="134" height="34" as="geometry" />
        </mxCell>
        <mxCell id="jlwMu8HetRNgnaijn_Fa-178" style="edgeStyle=orthogonalEdgeStyle;rounded=0;orthogonalLoop=1;jettySize=auto;html=1;exitX=0.5;exitY=1;exitDx=0;exitDy=0;" edge="1" parent="jlwMu8HetRNgnaijn_Fa-121" source="jlwMu8HetRNgnaijn_Fa-157" target="jlwMu8HetRNgnaijn_Fa-177">
          <mxGeometry relative="1" as="geometry" />
        </mxCell>
        <mxCell id="jlwMu8HetRNgnaijn_Fa-157" value="生成实例" style="rounded=0;whiteSpace=wrap;html=1;" vertex="1" parent="jlwMu8HetRNgnaijn_Fa-121">
          <mxGeometry x="80" y="613" width="134" height="34" as="geometry" />
        </mxCell>
        <mxCell id="jlwMu8HetRNgnaijn_Fa-146" value="job是否创建成功" style="rhombus;whiteSpace=wrap;html=1;fillColor=#ffcccc;strokeColor=#36393d;" vertex="1" parent="jlwMu8HetRNgnaijn_Fa-121">
          <mxGeometry x="47" y="242" width="176" height="61" as="geometry" />
        </mxCell>
        <mxCell id="jlwMu8HetRNgnaijn_Fa-153" value="发布是否成功" style="rhombus;whiteSpace=wrap;html=1;fillColor=#ffcccc;strokeColor=#36393d;" vertex="1" parent="jlwMu8HetRNgnaijn_Fa-121">
          <mxGeometry x="54" y="473" width="176" height="61" as="geometry" />
        </mxCell>
        <mxCell id="jlwMu8HetRNgnaijn_Fa-177" value="实例是否生成成功" style="rhombus;whiteSpace=wrap;html=1;fillColor=#ffcccc;strokeColor=#36393d;" vertex="1" parent="jlwMu8HetRNgnaijn_Fa-121">
          <mxGeometry x="59" y="688" width="176" height="61" as="geometry" />
        </mxCell>
        <mxCell id="jlwMu8HetRNgnaijn_Fa-134" value="数据库" style="swimlane;startSize=20;html=1;" vertex="1" parent="jlwMu8HetRNgnaijn_Fa-100">
          <mxGeometry x="600" y="20" width="290" height="1070" as="geometry" />
        </mxCell>
        <mxCell id="jlwMu8HetRNgnaijn_Fa-159" value="记录实例ID和状态" style="rounded=0;whiteSpace=wrap;html=1;" vertex="1" parent="jlwMu8HetRNgnaijn_Fa-134">
          <mxGeometry x="69" y="701.5" width="134" height="34" as="geometry" />
        </mxCell>
        <mxCell id="jlwMu8HetRNgnaijn_Fa-165" value="持久化调度 job 信息" style="rounded=0;whiteSpace=wrap;html=1;" vertex="1" parent="jlwMu8HetRNgnaijn_Fa-134">
          <mxGeometry x="101" y="255.5" width="110" height="34" as="geometry" />
        </mxCell>
        <mxCell id="jlwMu8HetRNgnaijn_Fa-143" style="edgeStyle=orthogonalEdgeStyle;rounded=0;orthogonalLoop=1;jettySize=auto;html=1;exitX=1;exitY=0.5;exitDx=0;exitDy=0;" edge="1" parent="jlwMu8HetRNgnaijn_Fa-100" source="jlwMu8HetRNgnaijn_Fa-139" target="jlwMu8HetRNgnaijn_Fa-141">
          <mxGeometry relative="1" as="geometry" />
        </mxCell>
        <mxCell id="jlwMu8HetRNgnaijn_Fa-166" value="是" style="edgeStyle=orthogonalEdgeStyle;rounded=0;orthogonalLoop=1;jettySize=auto;html=1;exitX=1;exitY=0.5;exitDx=0;exitDy=0;entryX=0;entryY=0.5;entryDx=0;entryDy=0;" edge="1" parent="jlwMu8HetRNgnaijn_Fa-100" source="jlwMu8HetRNgnaijn_Fa-146" target="jlwMu8HetRNgnaijn_Fa-165">
          <mxGeometry relative="1" as="geometry" />
        </mxCell>
        <mxCell id="jlwMu8HetRNgnaijn_Fa-169" style="edgeStyle=orthogonalEdgeStyle;rounded=0;orthogonalLoop=1;jettySize=auto;html=1;exitX=0.5;exitY=1;exitDx=0;exitDy=0;entryX=1;entryY=0.5;entryDx=0;entryDy=0;" edge="1" parent="jlwMu8HetRNgnaijn_Fa-100" source="jlwMu8HetRNgnaijn_Fa-165" target="jlwMu8HetRNgnaijn_Fa-167">
          <mxGeometry relative="1" as="geometry" />
        </mxCell>
        <mxCell id="jlwMu8HetRNgnaijn_Fa-171" style="edgeStyle=orthogonalEdgeStyle;rounded=0;orthogonalLoop=1;jettySize=auto;html=1;exitX=0.5;exitY=1;exitDx=0;exitDy=0;entryX=0;entryY=0.5;entryDx=0;entryDy=0;" edge="1" parent="jlwMu8HetRNgnaijn_Fa-100" source="jlwMu8HetRNgnaijn_Fa-167" target="jlwMu8HetRNgnaijn_Fa-149">
          <mxGeometry relative="1" as="geometry" />
        </mxCell>
        <mxCell id="jlwMu8HetRNgnaijn_Fa-172" style="edgeStyle=orthogonalEdgeStyle;rounded=0;orthogonalLoop=1;jettySize=auto;html=1;exitX=0;exitY=0.5;exitDx=0;exitDy=0;entryX=1;entryY=0.5;entryDx=0;entryDy=0;" edge="1" parent="jlwMu8HetRNgnaijn_Fa-100" source="jlwMu8HetRNgnaijn_Fa-153" target="jlwMu8HetRNgnaijn_Fa-155">
          <mxGeometry relative="1" as="geometry" />
        </mxCell>
        <mxCell id="jlwMu8HetRNgnaijn_Fa-173" value="是" style="edgeLabel;html=1;align=center;verticalAlign=middle;resizable=0;points=[];" vertex="1" connectable="0" parent="jlwMu8HetRNgnaijn_Fa-172">
          <mxGeometry x="-0.5419" y="-2" relative="1" as="geometry">
            <mxPoint as="offset" />
          </mxGeometry>
        </mxCell>
        <mxCell id="jlwMu8HetRNgnaijn_Fa-174" style="edgeStyle=orthogonalEdgeStyle;rounded=0;orthogonalLoop=1;jettySize=auto;html=1;exitX=0.5;exitY=1;exitDx=0;exitDy=0;entryX=0;entryY=0.5;entryDx=0;entryDy=0;" edge="1" parent="jlwMu8HetRNgnaijn_Fa-100" source="jlwMu8HetRNgnaijn_Fa-155" target="jlwMu8HetRNgnaijn_Fa-157">
          <mxGeometry relative="1" as="geometry" />
        </mxCell>
        <mxCell id="jlwMu8HetRNgnaijn_Fa-179" style="edgeStyle=orthogonalEdgeStyle;rounded=0;orthogonalLoop=1;jettySize=auto;html=1;exitX=1;exitY=0.5;exitDx=0;exitDy=0;entryX=0;entryY=0.5;entryDx=0;entryDy=0;" edge="1" parent="jlwMu8HetRNgnaijn_Fa-100" source="jlwMu8HetRNgnaijn_Fa-177" target="jlwMu8HetRNgnaijn_Fa-159">
          <mxGeometry relative="1" as="geometry" />
        </mxCell>
        <mxCell id="jlwMu8HetRNgnaijn_Fa-181" value="是" style="edgeLabel;html=1;align=center;verticalAlign=middle;resizable=0;points=[];" vertex="1" connectable="0" parent="jlwMu8HetRNgnaijn_Fa-179">
          <mxGeometry x="-0.5826" y="-3" relative="1" as="geometry">
            <mxPoint as="offset" />
          </mxGeometry>
        </mxCell>
        <mxCell id="jlwMu8HetRNgnaijn_Fa-180" style="edgeStyle=orthogonalEdgeStyle;rounded=0;orthogonalLoop=1;jettySize=auto;html=1;exitX=0.5;exitY=1;exitDx=0;exitDy=0;entryX=1;entryY=0.5;entryDx=0;entryDy=0;" edge="1" parent="jlwMu8HetRNgnaijn_Fa-100" source="jlwMu8HetRNgnaijn_Fa-159" target="jlwMu8HetRNgnaijn_Fa-161">
          <mxGeometry relative="1" as="geometry" />
        </mxCell>
        <mxCell id="jlwMu8HetRNgnaijn_Fa-187" value="定时任务巡检 job 执行情况" style="swimlane;childLayout=stackLayout;resizeParent=1;resizeParentMax=0;startSize=20;html=1;" vertex="1" parent="1">
          <mxGeometry x="2153" y="137" width="890" height="754" as="geometry" />
        </mxCell>
        <mxCell id="jlwMu8HetRNgnaijn_Fa-188" value="特征平台" style="swimlane;startSize=20;html=1;" vertex="1" parent="jlwMu8HetRNgnaijn_Fa-187">
          <mxGeometry y="20" width="330" height="734" as="geometry" />
        </mxCell>
        <mxCell id="jlwMu8HetRNgnaijn_Fa-190" value="定时任务触发" style="rounded=1;whiteSpace=wrap;html=1;fillColor=#cdeb8b;strokeColor=#36393d;" vertex="1" parent="jlwMu8HetRNgnaijn_Fa-188">
          <mxGeometry x="121" y="40" width="88" height="30" as="geometry" />
        </mxCell>
        <mxCell id="jlwMu8HetRNgnaijn_Fa-236" value="根据实例状态&lt;div&gt;判断任务状态&lt;/div&gt;" style="rounded=0;whiteSpace=wrap;html=1;" vertex="1" parent="jlwMu8HetRNgnaijn_Fa-188">
          <mxGeometry x="106" y="218" width="157" height="40" as="geometry" />
        </mxCell>
        <mxCell id="jlwMu8HetRNgnaijn_Fa-246" style="edgeStyle=orthogonalEdgeStyle;rounded=0;orthogonalLoop=1;jettySize=auto;html=1;exitX=0.5;exitY=1;exitDx=0;exitDy=0;" edge="1" parent="jlwMu8HetRNgnaijn_Fa-188" source="jlwMu8HetRNgnaijn_Fa-241" target="jlwMu8HetRNgnaijn_Fa-243">
          <mxGeometry relative="1" as="geometry" />
        </mxCell>
        <mxCell id="jlwMu8HetRNgnaijn_Fa-247" value="是" style="edgeLabel;html=1;align=center;verticalAlign=middle;resizable=0;points=[];" vertex="1" connectable="0" parent="jlwMu8HetRNgnaijn_Fa-246">
          <mxGeometry x="-0.1839" y="4" relative="1" as="geometry">
            <mxPoint as="offset" />
          </mxGeometry>
        </mxCell>
        <mxCell id="jlwMu8HetRNgnaijn_Fa-241" value="任务状态是否变更" style="rhombus;whiteSpace=wrap;html=1;fillColor=#ffcccc;strokeColor=#36393d;" vertex="1" parent="jlwMu8HetRNgnaijn_Fa-188">
          <mxGeometry x="96.5" y="436" width="176" height="61" as="geometry" />
        </mxCell>
        <mxCell id="jlwMu8HetRNgnaijn_Fa-252" style="edgeStyle=orthogonalEdgeStyle;rounded=0;orthogonalLoop=1;jettySize=auto;html=1;exitX=0.5;exitY=1;exitDx=0;exitDy=0;" edge="1" parent="jlwMu8HetRNgnaijn_Fa-188" source="jlwMu8HetRNgnaijn_Fa-243" target="jlwMu8HetRNgnaijn_Fa-249">
          <mxGeometry relative="1" as="geometry" />
        </mxCell>
        <mxCell id="jlwMu8HetRNgnaijn_Fa-243" value="发送任务状态变更通知" style="rounded=0;whiteSpace=wrap;html=1;" vertex="1" parent="jlwMu8HetRNgnaijn_Fa-188">
          <mxGeometry x="106" y="558" width="157" height="40" as="geometry" />
        </mxCell>
        <mxCell id="jlwMu8HetRNgnaijn_Fa-249" value="结束" style="rounded=1;whiteSpace=wrap;html=1;fillColor=#cdeb8b;strokeColor=#36393d;" vertex="1" parent="jlwMu8HetRNgnaijn_Fa-188">
          <mxGeometry x="140.5" y="662" width="88" height="30" as="geometry" />
        </mxCell>
        <mxCell id="jlwMu8HetRNgnaijn_Fa-199" value="调度平台" style="swimlane;startSize=20;html=1;" vertex="1" parent="jlwMu8HetRNgnaijn_Fa-187">
          <mxGeometry x="330" y="20" width="270" height="734" as="geometry" />
        </mxCell>
        <mxCell id="jlwMu8HetRNgnaijn_Fa-230" value="根据 job id 和 实例id&amp;nbsp;&lt;div&gt;查询实例状态&lt;/div&gt;" style="rounded=0;whiteSpace=wrap;html=1;" vertex="1" parent="jlwMu8HetRNgnaijn_Fa-199">
          <mxGeometry x="73" y="218" width="157" height="40" as="geometry" />
        </mxCell>
        <mxCell id="jlwMu8HetRNgnaijn_Fa-211" value="数据库" style="swimlane;startSize=20;html=1;" vertex="1" parent="jlwMu8HetRNgnaijn_Fa-187">
          <mxGeometry x="600" y="20" width="290" height="734" as="geometry" />
        </mxCell>
        <mxCell id="jlwMu8HetRNgnaijn_Fa-228" style="edgeStyle=orthogonalEdgeStyle;rounded=0;orthogonalLoop=1;jettySize=auto;html=1;exitX=0.5;exitY=1;exitDx=0;exitDy=0;entryX=0.5;entryY=0;entryDx=0;entryDy=0;" edge="1" parent="jlwMu8HetRNgnaijn_Fa-211" source="jlwMu8HetRNgnaijn_Fa-224" target="jlwMu8HetRNgnaijn_Fa-225">
          <mxGeometry relative="1" as="geometry" />
        </mxCell>
        <mxCell id="jlwMu8HetRNgnaijn_Fa-224" value="查询所有执行中的任务" style="rounded=0;whiteSpace=wrap;html=1;" vertex="1" parent="jlwMu8HetRNgnaijn_Fa-211">
          <mxGeometry x="65" y="86" width="159" height="34" as="geometry" />
        </mxCell>
        <mxCell id="jlwMu8HetRNgnaijn_Fa-229" style="edgeStyle=orthogonalEdgeStyle;rounded=0;orthogonalLoop=1;jettySize=auto;html=1;exitX=0.5;exitY=1;exitDx=0;exitDy=0;entryX=0.5;entryY=0;entryDx=0;entryDy=0;" edge="1" parent="jlwMu8HetRNgnaijn_Fa-211" source="jlwMu8HetRNgnaijn_Fa-225" target="jlwMu8HetRNgnaijn_Fa-226">
          <mxGeometry relative="1" as="geometry" />
        </mxCell>
        <mxCell id="jlwMu8HetRNgnaijn_Fa-225" value="查询任务下关联的 job" style="rounded=0;whiteSpace=wrap;html=1;" vertex="1" parent="jlwMu8HetRNgnaijn_Fa-211">
          <mxGeometry x="65" y="152" width="160" height="35" as="geometry" />
        </mxCell>
        <mxCell id="jlwMu8HetRNgnaijn_Fa-226" value="查询job下所有未完成的实例" style="rounded=0;whiteSpace=wrap;html=1;" vertex="1" parent="jlwMu8HetRNgnaijn_Fa-211">
          <mxGeometry x="68.5" y="221" width="157" height="34" as="geometry" />
        </mxCell>
        <mxCell id="jlwMu8HetRNgnaijn_Fa-238" value="更新数据库中的&lt;br&gt;任务、job、实例 状态" style="rounded=0;whiteSpace=wrap;html=1;" vertex="1" parent="jlwMu8HetRNgnaijn_Fa-211">
          <mxGeometry x="66.5" y="327.5" width="157" height="40" as="geometry" />
        </mxCell>
        <mxCell id="jlwMu8HetRNgnaijn_Fa-227" style="edgeStyle=orthogonalEdgeStyle;rounded=0;orthogonalLoop=1;jettySize=auto;html=1;entryX=0;entryY=0.5;entryDx=0;entryDy=0;exitX=0.5;exitY=1;exitDx=0;exitDy=0;" edge="1" parent="jlwMu8HetRNgnaijn_Fa-187" source="jlwMu8HetRNgnaijn_Fa-190" target="jlwMu8HetRNgnaijn_Fa-224">
          <mxGeometry relative="1" as="geometry" />
        </mxCell>
        <mxCell id="jlwMu8HetRNgnaijn_Fa-231" style="edgeStyle=orthogonalEdgeStyle;rounded=0;orthogonalLoop=1;jettySize=auto;html=1;exitX=0;exitY=0.5;exitDx=0;exitDy=0;" edge="1" parent="jlwMu8HetRNgnaijn_Fa-187" source="jlwMu8HetRNgnaijn_Fa-226" target="jlwMu8HetRNgnaijn_Fa-230">
          <mxGeometry relative="1" as="geometry" />
        </mxCell>
        <mxCell id="jlwMu8HetRNgnaijn_Fa-237" style="edgeStyle=orthogonalEdgeStyle;rounded=0;orthogonalLoop=1;jettySize=auto;html=1;exitX=0;exitY=0.5;exitDx=0;exitDy=0;entryX=1;entryY=0.5;entryDx=0;entryDy=0;" edge="1" parent="jlwMu8HetRNgnaijn_Fa-187" source="jlwMu8HetRNgnaijn_Fa-230" target="jlwMu8HetRNgnaijn_Fa-236">
          <mxGeometry relative="1" as="geometry" />
        </mxCell>
        <mxCell id="jlwMu8HetRNgnaijn_Fa-250" style="edgeStyle=orthogonalEdgeStyle;rounded=0;orthogonalLoop=1;jettySize=auto;html=1;exitX=0.5;exitY=1;exitDx=0;exitDy=0;entryX=0;entryY=0.5;entryDx=0;entryDy=0;" edge="1" parent="jlwMu8HetRNgnaijn_Fa-187" source="jlwMu8HetRNgnaijn_Fa-236" target="jlwMu8HetRNgnaijn_Fa-238">
          <mxGeometry relative="1" as="geometry" />
        </mxCell>
        <mxCell id="jlwMu8HetRNgnaijn_Fa-251" style="edgeStyle=orthogonalEdgeStyle;rounded=0;orthogonalLoop=1;jettySize=auto;html=1;exitX=0.5;exitY=1;exitDx=0;exitDy=0;entryX=1;entryY=0.5;entryDx=0;entryDy=0;" edge="1" parent="jlwMu8HetRNgnaijn_Fa-187" source="jlwMu8HetRNgnaijn_Fa-238" target="jlwMu8HetRNgnaijn_Fa-241">
          <mxGeometry relative="1" as="geometry" />
        </mxCell>
        <mxCell id="jlwMu8HetRNgnaijn_Fa-253" value="定时重跑被 kill 的任务" style="swimlane;childLayout=stackLayout;resizeParent=1;resizeParentMax=0;startSize=20;html=1;" vertex="1" parent="1">
          <mxGeometry x="3352" y="126" width="890" height="612" as="geometry" />
        </mxCell>
        <mxCell id="jlwMu8HetRNgnaijn_Fa-254" value="特征平台" style="swimlane;startSize=20;html=1;" vertex="1" parent="jlwMu8HetRNgnaijn_Fa-253">
          <mxGeometry y="20" width="330" height="592" as="geometry" />
        </mxCell>
        <mxCell id="jlwMu8HetRNgnaijn_Fa-255" value="定时任务触发" style="rounded=1;whiteSpace=wrap;html=1;fillColor=#cdeb8b;strokeColor=#36393d;" vertex="1" parent="jlwMu8HetRNgnaijn_Fa-254">
          <mxGeometry x="121" y="40" width="88" height="30" as="geometry" />
        </mxCell>
        <mxCell id="jlwMu8HetRNgnaijn_Fa-256" value="根据实例状态&lt;div&gt;判断任务状态&lt;/div&gt;" style="rounded=0;whiteSpace=wrap;html=1;" vertex="1" parent="jlwMu8HetRNgnaijn_Fa-254">
          <mxGeometry x="103" y="149" width="157" height="40" as="geometry" />
        </mxCell>
        <mxCell id="jlwMu8HetRNgnaijn_Fa-257" style="edgeStyle=orthogonalEdgeStyle;rounded=0;orthogonalLoop=1;jettySize=auto;html=1;exitX=0.5;exitY=1;exitDx=0;exitDy=0;" edge="1" parent="jlwMu8HetRNgnaijn_Fa-254" source="jlwMu8HetRNgnaijn_Fa-259" target="jlwMu8HetRNgnaijn_Fa-261">
          <mxGeometry relative="1" as="geometry" />
        </mxCell>
        <mxCell id="jlwMu8HetRNgnaijn_Fa-258" value="是" style="edgeLabel;html=1;align=center;verticalAlign=middle;resizable=0;points=[];" vertex="1" connectable="0" parent="jlwMu8HetRNgnaijn_Fa-257">
          <mxGeometry x="-0.1839" y="4" relative="1" as="geometry">
            <mxPoint as="offset" />
          </mxGeometry>
        </mxCell>
        <mxCell id="jlwMu8HetRNgnaijn_Fa-259" value="任务状态是否变更" style="rhombus;whiteSpace=wrap;html=1;fillColor=#ffcccc;strokeColor=#36393d;" vertex="1" parent="jlwMu8HetRNgnaijn_Fa-254">
          <mxGeometry x="96.5" y="288" width="176" height="61" as="geometry" />
        </mxCell>
        <mxCell id="jlwMu8HetRNgnaijn_Fa-260" style="edgeStyle=orthogonalEdgeStyle;rounded=0;orthogonalLoop=1;jettySize=auto;html=1;exitX=0.5;exitY=1;exitDx=0;exitDy=0;" edge="1" parent="jlwMu8HetRNgnaijn_Fa-254" source="jlwMu8HetRNgnaijn_Fa-261" target="jlwMu8HetRNgnaijn_Fa-262">
          <mxGeometry relative="1" as="geometry" />
        </mxCell>
        <mxCell id="jlwMu8HetRNgnaijn_Fa-261" value="发送任务状态变更通知" style="rounded=0;whiteSpace=wrap;html=1;" vertex="1" parent="jlwMu8HetRNgnaijn_Fa-254">
          <mxGeometry x="106" y="410" width="157" height="40" as="geometry" />
        </mxCell>
        <mxCell id="jlwMu8HetRNgnaijn_Fa-262" value="结束" style="rounded=1;whiteSpace=wrap;html=1;fillColor=#cdeb8b;strokeColor=#36393d;" vertex="1" parent="jlwMu8HetRNgnaijn_Fa-254">
          <mxGeometry x="140.5" y="514" width="88" height="30" as="geometry" />
        </mxCell>
        <mxCell id="jlwMu8HetRNgnaijn_Fa-263" value="调度平台" style="swimlane;startSize=20;html=1;" vertex="1" parent="jlwMu8HetRNgnaijn_Fa-253">
          <mxGeometry x="330" y="20" width="270" height="592" as="geometry" />
        </mxCell>
        <mxCell id="jlwMu8HetRNgnaijn_Fa-264" value="发起批量重跑" style="rounded=0;whiteSpace=wrap;html=1;" vertex="1" parent="jlwMu8HetRNgnaijn_Fa-263">
          <mxGeometry x="67" y="149" width="157" height="40" as="geometry" />
        </mxCell>
        <mxCell id="jlwMu8HetRNgnaijn_Fa-265" value="数据库" style="swimlane;startSize=20;html=1;" vertex="1" parent="jlwMu8HetRNgnaijn_Fa-253">
          <mxGeometry x="600" y="20" width="290" height="592" as="geometry" />
        </mxCell>
        <mxCell id="jlwMu8HetRNgnaijn_Fa-267" value="查询所有被 kill 的实例" style="rounded=0;whiteSpace=wrap;html=1;" vertex="1" parent="jlwMu8HetRNgnaijn_Fa-265">
          <mxGeometry x="65" y="86" width="159" height="34" as="geometry" />
        </mxCell>
        <mxCell id="jlwMu8HetRNgnaijn_Fa-271" value="更新数据库中的&lt;br&gt;任务、job、实例 状态" style="rounded=0;whiteSpace=wrap;html=1;" vertex="1" parent="jlwMu8HetRNgnaijn_Fa-265">
          <mxGeometry x="66" y="217" width="157" height="40" as="geometry" />
        </mxCell>
        <mxCell id="jlwMu8HetRNgnaijn_Fa-272" style="edgeStyle=orthogonalEdgeStyle;rounded=0;orthogonalLoop=1;jettySize=auto;html=1;entryX=0;entryY=0.5;entryDx=0;entryDy=0;exitX=0.5;exitY=1;exitDx=0;exitDy=0;" edge="1" parent="jlwMu8HetRNgnaijn_Fa-253" source="jlwMu8HetRNgnaijn_Fa-255" target="jlwMu8HetRNgnaijn_Fa-267">
          <mxGeometry relative="1" as="geometry" />
        </mxCell>
        <mxCell id="jlwMu8HetRNgnaijn_Fa-274" style="edgeStyle=orthogonalEdgeStyle;rounded=0;orthogonalLoop=1;jettySize=auto;html=1;exitX=0;exitY=0.5;exitDx=0;exitDy=0;entryX=1;entryY=0.5;entryDx=0;entryDy=0;" edge="1" parent="jlwMu8HetRNgnaijn_Fa-253" source="jlwMu8HetRNgnaijn_Fa-264" target="jlwMu8HetRNgnaijn_Fa-256">
          <mxGeometry relative="1" as="geometry" />
        </mxCell>
        <mxCell id="jlwMu8HetRNgnaijn_Fa-275" style="edgeStyle=orthogonalEdgeStyle;rounded=0;orthogonalLoop=1;jettySize=auto;html=1;exitX=0.5;exitY=1;exitDx=0;exitDy=0;entryX=0;entryY=0.5;entryDx=0;entryDy=0;" edge="1" parent="jlwMu8HetRNgnaijn_Fa-253" source="jlwMu8HetRNgnaijn_Fa-256" target="jlwMu8HetRNgnaijn_Fa-271">
          <mxGeometry relative="1" as="geometry">
            <Array as="points">
              <mxPoint x="182" y="259" />
              <mxPoint x="666" y="259" />
            </Array>
          </mxGeometry>
        </mxCell>
        <mxCell id="jlwMu8HetRNgnaijn_Fa-276" style="edgeStyle=orthogonalEdgeStyle;rounded=0;orthogonalLoop=1;jettySize=auto;html=1;exitX=0.5;exitY=1;exitDx=0;exitDy=0;entryX=1;entryY=0.5;entryDx=0;entryDy=0;" edge="1" parent="jlwMu8HetRNgnaijn_Fa-253" source="jlwMu8HetRNgnaijn_Fa-271" target="jlwMu8HetRNgnaijn_Fa-259">
          <mxGeometry relative="1" as="geometry" />
        </mxCell>
        <mxCell id="jlwMu8HetRNgnaijn_Fa-277" style="edgeStyle=orthogonalEdgeStyle;rounded=0;orthogonalLoop=1;jettySize=auto;html=1;exitX=0.5;exitY=1;exitDx=0;exitDy=0;entryX=1;entryY=0.5;entryDx=0;entryDy=0;" edge="1" parent="jlwMu8HetRNgnaijn_Fa-253" source="jlwMu8HetRNgnaijn_Fa-267" target="jlwMu8HetRNgnaijn_Fa-264">
          <mxGeometry relative="1" as="geometry" />
        </mxCell>
      </root>
    </mxGraphModel>
  </diagram>
</mxfile>
